<?xml version="1.0" encoding="UTF-8"?>
<svg id="Layer_1" xmlns="http://www.w3.org/2000/svg" version="1.1" viewBox="0 0 631 161">
  <!-- Generator: Adobe Illustrator 30.2.1, SVG Export Plug-In . SVG Version: 2.1.1 Build 1)  -->
  <path d="M93.29,0C103.93,0,114.23,2.1,123.97,6.22c5.17,2.19,10.13,4.98,14.74,8.24l-.98.52-12.65,6.48c-9.66-5.41-20.64-8.24-31.79-8.24h-.51c-8.59.09-16.97,1.8-24.87,5.11-7.91,3.35-15,8.11-21.07,14.21-12.39,12.49-19.23,29.06-19.23,46.65,0,2.88.17,5.75.56,8.63l.13.9.81-.43,109.19-55.92,22.61-11.59,25.6-13.13v14.85l-26.37,13.52-12.95,6.61-115.09,59.02-.51.3-5.9,3.01-5.98,3.05v-.04l-.56.26L0,118.03v-14.85l6.5-3.3c5.43-2.79,8.68-8.54,8.21-14.68-.13-2.02-.21-4.03-.21-6.05,0-10.69,2.09-21.07,6.2-30.86,3.97-9.44,9.66-17.9,16.88-25.19,7.22-7.25,15.64-13,25.04-17C72.31,2.1,82.65,0,93.29,0Z"/>
  <path d="M186.54,42.36v14.85l-6.5,3.3c-5.43,2.79-8.68,8.54-8.21,14.68.17,2.02.21,4.08.21,6.09,0,10.69-2.09,21.07-6.2,30.86-3.97,9.44-9.66,17.9-16.88,25.19-7.22,7.3-15.68,13.01-25.04,17-9.7,4.12-20.04,6.22-30.68,6.22s-20.94-2.1-30.68-6.22c-5.21-2.23-10.17-5.02-14.79-8.28l13.08-6.7.51-.26c9.66,5.41,20.68,8.28,31.88,8.28h.47c8.59-.04,16.97-1.76,24.87-5.11,7.91-3.35,15-8.11,21.07-14.21,12.39-12.45,19.23-29.06,19.23-46.65,0-2.88-.17-5.79-.56-8.67l-.13-.9-.81.43-109.27,55.84-22.61,11.59L0,152.75v-14.85l26.28-13.48,12.95-6.61L186.54,42.36Z"/>
  <path d="M257.9,138.97c0,9.8-5.82,12.85-13.92,12.85h-6.98v-25.67h6.98c8.11,0,13.92,3.05,13.92,12.82ZM240.59,129.2v19.58h3.28c5.28,0,10.36-1.06,10.36-9.8s-5.08-9.77-10.36-9.77h-3.28Z"/>
  <path d="M269.21,149.45c2.82,0,4.36-1.27,5.18-3.15h3.31c-.88,3.29-3.88,5.98-8.49,5.98-6,0-9.31-4.32-9.31-9.95,0-6.02,4.02-9.88,9.2-9.88,5.78,0,9.27,4.88,8.84,10.9h-14.57c.13,4.1,3.02,6.09,5.84,6.09ZM274.57,140.6c-.07-2.69-2.07-5.38-5.46-5.38-2.86,0-5.43,1.56-5.71,5.38h11.17Z"/>
  <path d="M292.41,132.77h3.31l-7.15,19.04h-2.86l-7.15-19.04h3.56l5.15,14.58,5.14-14.58Z"/>
  <path d="M304.77,149.45c2.82,0,4.37-1.27,5.18-3.15h3.31c-.88,3.29-3.88,5.98-8.49,5.98-6,0-9.31-4.32-9.31-9.95,0-6.02,4.01-9.88,9.2-9.88,5.78,0,9.27,4.88,8.84,10.9h-14.59c.15,4.1,3.04,6.09,5.86,6.09ZM310.14,140.6c-.07-2.69-2.07-5.38-5.46-5.38-2.86,0-5.43,1.56-5.71,5.38h11.17Z"/>
  <path d="M316.44,151.81v-25.66h3.21v25.66h-3.21Z"/>
  <path d="M331.7,152.28c-4.41,0-9.09-3.01-9.09-9.91s4.68-9.91,9.09-9.91,9.09,3.01,9.09,9.91-4.7,9.91-9.09,9.91ZM337.37,142.36c0-5.06-2.79-7.08-5.67-7.08s-5.68,1.88-5.68,7.08,2.79,7.08,5.68,7.08,5.67-2.19,5.67-7.08Z"/>
  <path d="M347,135.78c1.17-2.02,3.17-3.33,6.2-3.33,4.33,0,8.11,3.65,8.11,9.91s-3.77,9.91-8.11,9.91c-3.03,0-5.04-1.31-6.2-3.33v9.06h-3.21v-25.23h3.21v3.01ZM357.81,142.36c0-4.53-2.15-7.15-5.43-7.15-2.86,0-5.53,2.12-5.53,7.15s2.68,7.15,5.53,7.15c3.28,0,5.43-2.61,5.43-7.15Z"/>
  <path d="M364.26,151.81v-19.04h3.21v2.87c1.09-1.8,2.86-3.18,5.71-3.18s4.61,1.28,5.46,3.36c1.52-2.33,3.74-3.36,6.38-3.36,4.41,0,6.13,2.97,6.13,7.33v12.03h-3.21v-11.09c0-2.93-.57-5.48-4.06-5.48-2.75,0-4.58,2.16-4.58,6.23v10.33h-3.21v-11.08c0-2.93-.57-5.48-4.06-5.48-2.74,0-4.58,2.16-4.58,6.23v10.33h-3.19Z"/>
  <path d="M403.53,149.45c2.82,0,4.36-1.27,5.18-3.15h3.31c-.88,3.29-3.88,5.98-8.49,5.98-6,0-9.31-4.32-9.31-9.95,0-6.02,4.01-9.88,9.2-9.88,5.78,0,9.27,4.88,8.84,10.9h-14.59c.14,4.1,3.03,6.09,5.86,6.09ZM408.88,140.6c-.07-2.69-2.07-5.38-5.46-5.38-2.86,0-5.43,1.56-5.71,5.38h11.17Z"/>
  <path d="M424.6,132.45c4.58,0,6.23,2.97,6.23,7.33v12.03h-3.21v-11.08c0-2.93-.49-5.48-4.16-5.48-3.11,0-5.01,2.16-5.01,6.23v10.33h-3.21v-19.04h3.21v2.87c1.11-1.81,2.93-3.19,6.14-3.19Z"/>
  <path d="M439.05,128v4.78h3.59v2.58h-3.59v11.29c0,1.98.14,2.48,1.97,2.48h1.62v2.7h-2.32c-3.63,0-4.48-.82-4.48-4.78v-11.68h-2.99v-2.58h2.99v-4.78h3.21Z"/>
  <path d="M475.29,126.15v3.12h-13v7.78h12.26v3.12h-12.27v11.65h-3.59v-25.67h16.6Z"/>
  <path d="M485.68,152.28c-4.41,0-9.09-3.01-9.09-9.91s4.68-9.91,9.09-9.91,9.09,3.01,9.09,9.91-4.68,9.91-9.09,9.91ZM491.36,142.36c0-5.06-2.79-7.08-5.67-7.08s-5.68,1.88-5.68,7.08,2.79,7.08,5.68,7.08,5.67-2.19,5.67-7.08Z"/>
  <path d="M503.76,152.28c-4.41,0-6.06-2.97-6.06-7.33v-12.18h3.21v11.23c0,2.93.49,5.48,3.98,5.48,3.03,0,4.83-2.16,4.83-6.23v-10.48h3.21v19.04h-3.21v-2.73c-1.11,1.8-2.83,3.19-5.97,3.19Z"/>
  <path d="M526.21,132.45c4.58,0,6.23,2.97,6.23,7.33v12.03h-3.21v-11.08c0-2.93-.5-5.48-4.16-5.48-3.11,0-5.01,2.16-5.01,6.23v10.33h-3.21v-19.04h3.21v2.87c1.1-1.81,2.94-3.19,6.14-3.19Z"/>
  <path d="M552.92,126.15v25.66h-3.21v-2.87c-1.17,2.02-3.17,3.33-6.2,3.33-4.34,0-8.11-3.61-8.11-9.91s3.77-9.91,8.11-9.91c3.03,0,5.04,1.31,6.2,3.33v-9.63h3.21ZM538.9,142.36c0,4.53,2.15,7.15,5.43,7.15,2.86,0,5.53-2.12,5.53-7.15s-2.68-7.15-5.53-7.15c-3.28,0-5.43,2.62-5.43,7.15Z"/>
  <path d="M568.78,140.1v-.46c0-3.47-1.94-4.63-4.3-4.63-2.64,0-4.19,1.45-4.34,3.78h-3.31c.32-4.1,3.91-6.4,7.62-6.4,5.21,0,7.57,2.51,7.54,7.86l-.03,4.38c-.03,3.18.14,5.38.5,7.18h-3.24c-.1-.7-.21-1.48-.25-2.62-1.17,1.95-3.14,3.08-6.48,3.08-3.56,0-6.52-1.98-6.52-5.48-.01-4.5,5.02-5.8,12.82-6.68ZM559.52,146.71c0,1.8,1.37,3.01,3.66,3.01,2.99,0,5.85-1.38,5.85-5.88v-1.2c-5.82.61-9.52,1.46-9.52,4.07Z"/>
  <path d="M580.17,128v4.78h3.59v2.58h-3.59v11.29c0,1.98.14,2.48,1.97,2.48h1.62v2.7h-2.32c-3.63,0-4.48-.82-4.48-4.78v-11.68h-2.99v-2.58h2.99v-4.78h3.21Z"/>
  <path d="M590.88,130.05h-3.21v-3.9h3.21v3.9ZM590.88,151.81h-3.21v-19.04h3.21v19.04Z"/>
  <path d="M602.97,152.28c-4.41,0-9.09-3.01-9.09-9.91s4.68-9.91,9.09-9.91,9.09,3.01,9.09,9.91-4.68,9.91-9.09,9.91ZM608.64,142.36c0-5.06-2.79-7.08-5.68-7.08s-5.68,1.88-5.68,7.08,2.79,7.08,5.68,7.08,5.68-2.19,5.68-7.08Z"/>
  <path d="M624.33,132.45c4.58,0,6.23,2.97,6.23,7.33v12.03h-3.21v-11.08c0-2.93-.49-5.48-4.16-5.48-3.11,0-5.01,2.16-5.01,6.23v10.33h-3.21v-19.04h3.21v2.87c1.1-1.81,2.93-3.19,6.14-3.19Z"/>
  <path d="M317.09,32.41h-14.12c-3.55-12.04-15.25-16.07-25.69-16.07-7.98,0-21.98,3.57-21.98,15.19,0,9.19,7.27,13.76,16.84,15.9l11.99,2.73c15.83,3.44,34.8,9.44,34.8,30.38s-18.84,31.09-39.4,31.09c-24.4,0-39.82-13.34-42.53-34.11h14.29c2.72,14.35,12.7,21.78,28.54,21.78s24.11-7.3,24.11-17.5c0-10.91-9.27-15.48-22.27-18.34l-12.83-2.73c-14.12-3.15-28.41-11.04-28.41-28.36,0-19.76,20.68-28.36,37.39-28.36,18.59.04,35.26,8.35,39.27,28.41Z"/>
  <path d="M351.06,13.36v19.34h14.54v10.45h-14.54v45.69c0,8.01.58,10.03,7.98,10.03h6.56v10.91h-9.4c-14.71,0-18.13-3.31-18.13-19.34v-47.29h-12.12v-10.45h12.12V13.36h12.99Z"/>
  <path d="M409.55,100.21c11.41,0,17.67-5.16,20.97-12.76h13.41c-3.55,13.34-15.71,24.21-34.38,24.21-24.27,0-37.68-17.5-37.68-40.28,0-24.38,16.25-39.99,37.22-39.99,23.4,0,37.52,19.76,35.81,44.14h-59.08c.63,16.62,12.33,24.67,23.73,24.67ZM431.23,64.38c-.29-10.91-8.4-21.78-22.1-21.78-11.57,0-21.98,6.29-23.1,21.78h45.2Z"/>
  <path d="M457.22,109.78V5.89h12.99v103.89h-12.99Z"/>
  <path d="M486.17,109.78V5.89h12.99v103.89h-12.99Z"/>
  <path d="M563.09,62.37v-1.85c0-14.06-7.85-18.76-17.42-18.76-10.7,0-16.96,5.87-17.55,15.32h-13.41c1.3-16.62,15.83-25.93,30.83-25.93,21.1,0,30.67,10.15,30.54,31.81l-.12,17.75c-.12,12.88.58,21.78,2.01,29.08h-13.12c-.42-2.85-.84-6-1-10.62-4.72,7.89-12.7,12.46-26.24,12.46-14.41,0-26.4-8.01-26.4-22.2-.04-18.17,20.35-23.5,51.89-27.06ZM525.57,89.18c0,7.3,5.56,12.17,14.83,12.17,12.12,0,23.69-5.58,23.69-23.79v-4.87c-23.56,2.43-38.52,5.87-38.52,16.49Z"/>
  <path d="M623.29,45.75c-11.99,0-17.97,6.76-17.97,23.67v40.41h-12.99V32.7h12.7v13.47c3.84-8.73,11.7-13.6,21.68-13.89,1.29,0,2.42,0,3.84.13v13.89c-2.72-.25-5.14-.55-7.27-.55Z"/>
</svg>