<svg width="64" height="64" viewBox="0 0 64 64" fill="none" xmlns="http://www.w3.org/2000/svg" role="img" aria-label="ZeroSeal mark">
  <title>ZeroSeal</title>
  <g stroke="currentColor" stroke-width="2.2" stroke-linecap="round">
    <path d="M35.44 11.66 L47.48 17.45" />
    <path d="M49.62 20.14 L53.03 35.04" />
    <path d="M52.26 38.39 L42.74 50.33" />
    <path d="M39.64 51.82 L24.36 51.82" />
    <path d="M21.26 50.33 L11.74 38.39" />
    <path d="M10.98 35.04 L14.38 20.14" />
    <path d="M16.52 17.45 L28.56 11.66" />
  </g>
  <path fill="currentColor" fill-rule="evenodd" d="M18.8 32 a13.2 13.2 0 1 0 26.4 0 a13.2 13.2 0 1 0 -26.4 0 Z M25.4 26.2 L38.6 26.2 L38.6 29.3 L29.36 34.7 L38.6 34.7 L38.6 37.8 L25.4 37.8 L25.4 34.7 L34.64 29.3 L25.4 29.3 Z" />
</svg>
