<svg width="287" height="48" viewBox="0 0 287 48" fill="none" xmlns="http://www.w3.org/2000/svg">
<g clip-path="url(#clip0_1588_4340)">
<mask id="mask0_1588_4340" style="mask-type:luminance" maskUnits="userSpaceOnUse" x="0" y="0" width="49" height="48">
<path d="M48.5 0H0.5V48H48.5V0Z" fill="white"/>
</mask>
<g mask="url(#mask0_1588_4340)">
<path d="M48.5 29.946C48.5 8.25723 35.0095 0 24.5264 0C14.0437 0 0.5 8.25723 0.5 29.946V48H8.51368V28.0556C8.51368 13.6942 16.8924 7.83406 24.5264 7.83406C32.1603 7.83406 40.4795 13.6942 40.4795 28.0556V48H48.5V29.946Z" fill="black"/>
<path d="M28.5042 23.6861L28.5048 47.9998H20.4974L20.4968 23.6861H24.3948H28.5042Z" fill="#F75C2E"/>
</g>
<path d="M90.1843 48C77.8068 48 68.0352 38.2283 68.0352 24.548C68.0352 10.8676 77.8068 1.09598 90.1843 1.09598C103.539 1.09598 109.402 11.5191 110.705 17.7078H101.91C100.607 14.1249 97.0245 9.23904 90.1843 9.23904C82.3669 9.23904 76.5039 15.102 76.5039 24.548C76.5039 33.9939 82.3669 39.8569 90.1843 39.8569C97.0245 39.8569 100.607 34.9711 101.91 31.0624H110.705C109.728 36.274 104.516 48 90.1843 48Z" fill="black"/>
<path d="M125.548 48C118.056 48 113.496 43.4399 113.496 37.9026C113.496 31.3882 118.056 26.828 127.177 26.828H134.668V26.1766C134.668 22.5936 132.388 19.9879 128.805 19.9879C125.222 19.9879 123.268 22.2679 122.942 24.2223H114.799C115.451 18.685 120.011 13.4734 128.805 13.4734C137.274 13.4734 142.811 19.0107 142.811 26.1766V47.3486H135.971L135.32 44.0913H134.994C134.994 44.0913 132.063 48 125.548 48ZM126.851 41.4855C131.737 41.4855 134.668 38.554 134.668 33.9939V33.0168H127.828C123.594 33.0168 121.639 34.6454 121.639 37.2512C121.639 39.8569 123.594 41.4855 126.851 41.4855Z" fill="black"/>
<path d="M148.824 47.3486V14.1249H156.316L156.968 17.3821H157.293C157.293 17.3821 160.225 13.4734 166.413 13.4734C173.905 13.4734 179.442 19.0107 179.442 27.4795V47.3486H171.299V28.1309C171.299 23.8965 168.368 20.965 164.133 20.965C159.899 20.965 156.968 23.8965 156.968 28.1309V47.3486H148.824Z" fill="black"/>
<path d="M195.253 47.3486C189.715 47.3486 186.784 44.417 186.784 39.5312V21.9422H181.572V14.1249H186.784V4.67892H194.927V14.1249H202.419V21.9422H194.927V37.9026C194.927 39.5312 195.578 40.1827 197.207 40.1827H202.419V47.3486H195.253Z" fill="black"/>
<path d="M207.444 47.3486V14.1249H215.587V47.3486H207.444ZM211.516 8.91332C209.087 8.91332 207.119 6.9446 207.119 4.51606V4.39728C207.119 1.96875 209.087 3.05176e-05 211.516 3.05176e-05C213.944 3.05176e-05 215.913 1.96874 215.913 4.39728V4.51606C215.913 6.9446 213.944 8.91332 211.516 8.91332Z" fill="black"/>
<path d="M221.931 47.3486V14.1249H229.423L230.074 17.3821H230.4C230.4 17.3821 233.332 13.4734 239.52 13.4734C247.012 13.4734 252.549 19.0107 252.549 27.4795V47.3486H244.406V28.1309C244.406 23.8965 241.475 20.965 237.24 20.965C233.006 20.965 230.074 23.8965 230.074 28.1309V47.3486H221.931Z" fill="black"/>
<path d="M268.98 48C261.489 48 256.929 43.4399 256.929 37.9026C256.929 31.3882 261.489 26.828 270.609 26.828H278.101V26.1766C278.101 22.5936 275.821 19.9879 272.238 19.9879C268.655 19.9879 266.7 22.2679 266.375 24.2223H258.232C258.883 18.685 263.443 13.4734 272.238 13.4734C280.706 13.4734 286.244 19.0107 286.244 26.1766V47.3486H279.404L278.752 44.0913H278.426C278.426 44.0913 275.495 48 268.98 48ZM270.283 41.4855C275.169 41.4855 278.101 38.554 278.101 33.9939V33.0168H271.261C267.026 33.0168 265.072 34.6454 265.072 37.2512C265.072 39.8569 267.026 41.4855 270.283 41.4855Z" fill="black"/>
</g>
<defs>
<clipPath id="clip0_1588_4340">
<rect width="287" height="48" fill="white"/>
</clipPath>
</defs>
</svg>
