<svg width="125" height="24" viewBox="0 0 125 24" fill="none" xmlns="http://www.w3.org/2000/svg">
    <path d="M2.83151 0.29796C2.49766 0.0989079 2.13142 0 1.66552 0C1.16599 0 0.766114 0.0989079 0.465897 0.29796C0.166926 0.495776 0 0.760354 0 1.0917V22.8762C0 23.1407 0.166926 23.4053 0.465897 23.6365C0.799749 23.8677 1.16599 24 1.63189 24C2.0492 24.0012 2.45655 23.8739 2.79787 23.6365C3.13048 23.4053 3.29741 23.1407 3.29741 22.8762V1.0917C3.33104 0.760354 3.16411 0.495776 2.83151 0.29796ZM5.59575 11.7354C5.39643 11.9345 5.29553 12.199 5.3628 12.5947C5.39643 12.9915 5.56211 13.355 5.89597 13.6864C6.19494 14.0165 6.56118 14.2477 6.96105 14.3478C7.36093 14.4467 7.66114 14.38 7.86046 14.2155L9.62563 13.1238V22.8762C9.62563 23.1407 9.79256 23.4053 10.0928 23.6365C10.3917 23.8677 10.7916 24 11.2575 24C11.7247 24 12.1245 23.8677 12.4571 23.6365C12.7897 23.4053 12.9567 23.1407 12.9567 22.8762V9.71893C12.9567 9.38883 12.7897 9.15763 12.4571 8.95858C12.1245 8.76076 11.7247 8.66185 11.2251 8.66185C10.7256 8.66185 10.3594 8.76076 10.0591 8.95858L5.59575 11.7354ZM18.7517 19.4379C18.7517 20.0993 18.9523 20.6285 19.3185 20.9586C19.6848 21.2899 20.1843 21.4877 20.7835 21.4877C21.5832 21.4877 22.3494 21.1576 23.0495 20.4962C23.7819 19.8347 24.1482 19.1078 24.1482 18.3474V17.1902H23.3484C22.4166 17.1902 21.6505 17.2236 21.0501 17.3225C20.4509 17.4214 19.9177 17.6204 19.4518 17.9839C18.9859 18.314 18.7517 18.8098 18.7517 19.4379ZM15.4219 19.8347C15.4219 18.1484 16.0548 16.9924 17.3204 16.3309C18.5861 15.6695 20.3849 15.3394 22.7829 15.3394H24.1482V14.7435C24.1482 13.7853 23.8816 12.9915 23.3821 12.298C22.8825 11.6031 22.0828 11.273 21.0501 11.273C20.1507 11.273 19.3522 11.4387 18.6857 11.8022C18.0193 12.1323 17.6194 12.3313 17.5534 12.3313C17.1871 12.3313 16.9205 12.1657 16.6876 11.8022C16.4546 11.4708 16.3537 11.074 16.3537 10.645C16.3537 10.1158 16.8533 9.62002 17.886 9.22316C18.885 8.82629 19.985 8.62847 21.1173 8.62847C23.2824 8.62847 24.8807 9.22316 25.9133 10.3804C26.946 11.5376 27.4792 12.9915 27.4792 14.7435V22.6116C27.4792 22.9095 27.3123 23.1741 27.0121 23.3719C26.7131 23.6031 26.3132 23.702 25.8797 23.702C25.4475 23.702 25.1136 23.6031 24.8146 23.3719C24.5144 23.1407 24.3811 22.9095 24.3811 22.6116V21.5211C22.9822 23.1407 21.3839 23.9666 19.6511 23.9666C18.4191 23.9666 17.4201 23.6031 16.654 22.9095C15.8218 22.2147 15.4219 21.1898 15.4219 19.8347ZM30.3107 17.7527V14.9091C30.3107 13.0583 30.8426 11.5376 31.9426 10.3804C33.0413 9.22316 34.6396 8.66185 36.8046 8.66185C38.1712 8.66185 39.3035 8.89305 40.2353 9.35545C41.1684 9.81784 41.6343 10.347 41.6343 10.9429C41.6343 11.3064 41.5022 11.6699 41.2356 12C40.9691 12.3635 40.6688 12.5292 40.3026 12.5292C40.2029 12.5292 39.8367 12.3635 39.1702 12.0668C38.5374 11.7688 37.8373 11.6031 37.0388 11.6031C34.7405 11.6031 33.5745 12.6948 33.5745 14.9091V17.7193C33.5745 19.9336 34.7405 21.0253 37.0712 21.0253C37.871 21.0253 38.5711 20.8597 39.2363 20.5296C39.8691 20.1982 40.269 20.0325 40.3686 20.0325C40.8021 20.0325 41.1347 20.1982 41.4013 20.5296C41.6679 20.8597 41.8012 21.2232 41.8012 21.5866C41.8012 22.1813 41.3353 22.7105 40.3686 23.2063C39.4032 23.702 38.2372 23.9666 36.8383 23.9666C34.6732 23.9666 33.0413 23.4053 31.9426 22.2481C30.8763 21.1576 30.3107 19.6369 30.3107 17.7527ZM44.2328 22.645V1.05831C44.2328 0.728209 44.3661 0.495776 44.6663 0.29796C44.9653 0.0989079 45.3315 0 45.8311 0C46.2982 0 46.7305 0.0989079 47.0307 0.29796C47.3633 0.495776 47.5302 0.760354 47.5302 1.05831V15.0414L54.0914 9.02534C54.292 8.82629 54.5249 8.72738 54.7915 8.72738C55.1577 8.72738 55.4903 8.89305 55.8578 9.22316C56.2241 9.5545 56.3898 9.91798 56.3898 10.2815C56.3898 10.5461 56.2901 10.7772 56.1232 10.9751L52.0596 14.579L56.9902 21.6855C57.1235 21.8846 57.1895 22.049 57.1895 22.2481C57.1895 22.6116 56.9902 23.0084 56.5567 23.3719C56.1232 23.7354 55.7245 23.9345 55.3247 23.9345C54.9584 23.9345 54.6918 23.7688 54.4589 23.4708L49.8286 16.661L47.5302 18.7443V22.6783C47.5302 22.9417 47.3633 23.2063 47.0307 23.4375C46.6981 23.6699 46.2982 23.7688 45.8311 23.7688C45.3652 23.7688 44.9989 23.6699 44.6987 23.4375C44.3997 23.1741 44.2328 22.9095 44.2328 22.645ZM61.7189 15.0748H66.9484C67.4156 15.0748 67.7145 15.008 67.8815 14.8757C68.0484 14.7435 68.1144 14.5123 68.1144 14.1154C68.1144 13.2895 67.8154 12.5947 67.215 12C66.6158 11.4387 65.8497 11.1407 64.9503 11.1407C64.0845 11.1407 63.3184 11.4053 62.6856 11.9666C62.0528 12.5292 61.7526 13.2227 61.7526 14.0499V15.0748H61.7189ZM58.4215 17.7527V14.7768C58.4215 13.1238 59.0543 11.7033 60.3536 10.4793C61.6193 9.28992 63.1851 8.66185 64.9839 8.66185C66.7155 8.66185 68.1817 9.22316 69.4137 10.2815C70.6457 11.3719 71.2461 12.727 71.2461 14.4133C71.2461 15.0414 71.1789 15.5706 71.0119 15.9674C70.8787 16.3643 70.6457 16.6276 70.3131 16.7933C70.0129 16.959 69.7139 17.0579 69.4473 17.0913C69.1807 17.1247 68.8145 17.1568 68.381 17.1568H61.7526V17.885C61.7526 18.9421 62.1188 19.7692 62.8849 20.3973C63.651 21.0253 64.6177 21.3221 65.8497 21.3221C66.7155 21.3221 67.5152 21.1242 68.2813 20.7274C69.0475 20.3305 69.5134 20.1327 69.6803 20.1327C70.0465 20.1327 70.3467 20.2971 70.5797 20.6285C70.8463 20.9586 70.9459 21.2899 70.9459 21.62C70.9459 22.1492 70.4464 22.645 69.4473 23.2063C68.4483 23.7354 67.215 24 65.75 24C63.6186 24 61.8522 23.4375 60.4869 22.2815C59.088 21.1242 58.4215 19.6035 58.4215 17.7527ZM73.8771 22.645V9.91798C73.8771 9.58664 74.044 9.35545 74.343 9.15763C74.6432 8.95858 75.0431 8.85967 75.509 8.85967C75.9089 8.85967 76.2751 8.95858 76.5753 9.15763C76.8743 9.35545 77.0076 9.62003 77.0076 9.95013V11.3385C77.3738 10.6116 77.907 9.98351 78.6395 9.45435C79.3732 8.92643 80.1393 8.66185 81.0051 8.66185H82.0041C82.3367 8.66185 82.6369 8.79414 82.8699 9.09087C83.1365 9.38883 83.2361 9.71893 83.2361 10.1158C83.2361 10.5127 83.1028 10.8762 82.8699 11.1741C82.6033 11.4708 82.3367 11.6031 82.0041 11.6031H81.0051C80.006 11.6031 79.1066 12.0334 78.3405 12.8926C77.5744 13.7519 77.2081 14.8436 77.2081 16.1986V22.6116C77.2081 22.8762 77.0412 23.1407 76.7086 23.3719C76.3747 23.6031 75.9749 23.702 75.509 23.702C75.0431 23.702 74.6768 23.6031 74.343 23.3719C74.0104 23.1741 73.8771 22.9095 73.8771 22.645ZM86.2009 17.9839C86.2009 19.041 86.5672 20.0004 87.3333 20.8263C88.0994 21.6534 89.0324 22.049 90.0975 22.049C91.1975 22.049 92.1293 21.6534 92.8954 20.8263C93.6615 20.0004 94.0614 19.0744 94.0614 17.9839V14.579C94.0614 13.5541 93.6615 12.6281 92.8954 11.8343C92.0957 11.0084 91.1975 10.6116 90.1312 10.6116C89.0648 10.6116 88.133 11.0084 87.3669 11.8343C86.6008 12.6614 86.2346 13.5541 86.2346 14.579V17.9839H86.2009ZM84.1692 17.9839V14.579C84.1692 12.9915 84.7684 11.6031 85.9344 10.4459C87.1003 9.28992 88.4993 8.694 90.1312 8.694C91.7294 8.694 93.162 9.25654 94.328 10.4138C95.5264 11.571 96.1268 12.9594 96.1268 14.5456V17.9505C96.1268 19.5046 95.5264 20.893 94.328 22.1158C93.1284 23.3064 91.7294 23.9345 90.1312 23.9345C88.5653 23.9345 87.1664 23.3385 85.968 22.1158C84.7684 20.9586 84.1692 19.5702 84.1692 17.9839ZM98.5908 22.9095V9.65341C98.5908 9.42221 98.6917 9.25654 98.8574 9.09087C99.0579 8.95858 99.2909 8.89305 99.5911 8.89305C99.8565 8.89305 100.057 8.95858 100.256 9.12425C100.457 9.28992 100.523 9.45435 100.523 9.65341V11.1074C100.889 10.4138 101.422 9.85122 102.155 9.38883C102.889 8.92643 103.754 8.694 104.72 8.694C106.218 8.694 107.551 9.25654 108.65 10.4138C109.75 11.571 110.315 12.9594 110.315 14.5456V22.9095C110.315 23.1741 110.216 23.3719 110.016 23.5042C109.816 23.6365 109.549 23.7354 109.283 23.7354C109.016 23.7354 108.817 23.6699 108.584 23.5042C108.383 23.3719 108.284 23.1741 108.284 22.9095V14.579C108.284 13.5541 107.884 12.6281 107.118 11.8343C106.352 11.0084 105.42 10.6116 104.353 10.6116C103.354 10.6116 102.489 10.9751 101.755 11.7033C100.99 12.4302 100.623 13.3884 100.623 14.579V22.9095C100.623 23.1073 100.523 23.3064 100.29 23.4708C100.091 23.6365 99.8565 23.7354 99.5575 23.7354C99.2573 23.7354 99.0243 23.6365 98.825 23.4708C98.6917 23.3385 98.5908 23.1407 98.5908 22.9095ZM114.745 15.4049H121.041C121.674 15.4049 122.074 15.3394 122.307 15.2071C122.506 15.0748 122.606 14.7768 122.606 14.3478C122.606 13.3229 122.239 12.3969 121.473 11.6031C120.741 10.8106 119.808 10.4138 118.675 10.4138C117.577 10.4138 116.644 10.7772 115.878 11.5376C115.111 12.298 114.745 13.1906 114.745 14.2155V15.4049ZM112.713 17.9839V14.4789C112.713 12.8926 113.314 11.5376 114.479 10.4138C115.645 9.28992 117.077 8.694 118.709 8.694C120.309 8.694 121.674 9.25654 122.84 10.3149C124.005 11.4053 124.571 12.7603 124.571 14.4133C124.571 15.008 124.504 15.4717 124.372 15.8351C124.239 16.1986 124.005 16.4298 123.706 16.5955C123.405 16.7278 123.139 16.8267 122.872 16.8922C122.606 16.9256 122.273 16.959 121.84 16.959H114.745V18.1162C114.745 19.339 115.179 20.3305 116.078 21.0909C116.978 21.8178 118.11 22.2147 119.509 22.2147C120.208 22.2147 120.841 22.1158 121.374 21.8846C121.808 21.7239 122.222 21.5125 122.606 21.2565C122.906 21.0575 123.106 20.9252 123.272 20.9252C123.505 20.9252 123.706 21.0253 123.871 21.2565C124.038 21.4877 124.138 21.6855 124.138 21.8846C124.138 22.3136 123.672 22.7772 122.773 23.2396C121.873 23.702 120.741 23.9345 119.409 23.9345C117.41 23.9345 115.812 23.3719 114.546 22.2815C113.346 21.2232 112.713 19.7692 112.713 17.9839Z" fill="white"/>
</svg>
